<?xml version="1.0" encoding="iso-8859-1"?>
<!-- Generator: Adobe Illustrator 19.0.0, SVG Export Plug-In . SVG Version: 6.00 Build 0)  -->
<svg version="1.1" id="Layer_1" xmlns="http://www.w3.org/2000/svg" xmlns:xlink="http://www.w3.org/1999/xlink" x="0px" y="0px"
	 viewBox="0 0 512 512" style="enable-background:new 0 0 512 512;" xml:space="preserve">
<g>
	<g>
		<path d="M488.238,118.09H396.25V85.47c0-26.332-21.424-47.756-47.756-47.756H162.99c-26.333,0-47.757,21.424-47.757,47.756v32.62
			H23.762C10.66,118.09,0,128.75,0,141.852v308.671c0,13.103,10.66,23.762,23.762,23.762h464.476
			c13.103,0,23.762-10.66,23.762-23.762V141.852C512,128.75,501.34,118.09,488.238,118.09z M130.4,85.47L130.4,85.47
			c0-17.969,14.62-32.588,32.59-32.588h185.503c17.969,0,32.589,14.619,32.589,32.588v32.433h-23.71V85.47
			c0-4.813-4.066-8.879-8.879-8.879H162.99c-4.813,0-8.879,4.066-8.879,8.879v32.433H130.4V85.47z M342.206,91.759v26.331H169.278
			V91.759H342.206z M15.167,141.852c0-4.739,3.856-8.595,8.595-8.595h47.635c-3.481,29.326-26.864,52.623-56.23,55.969V141.852z
			 M23.762,459.117c-4.739,0-8.595-3.856-8.595-8.595v-48.436c29.593,3.513,53.061,27.288,56.07,57.031H23.762z M496.833,450.522
			c0,4.739-3.857,8.595-8.595,8.595h-51.276c3.136-31.007,28.504-55.536,59.87-57.375V450.522z M496.833,386.55
			c-39.732,1.879-71.867,33.191-75.078,72.566H86.444c-3.108-38.111-33.311-68.664-71.276-72.291V204.472
			c37.738-3.462,67.889-33.517,71.491-71.216h334.883c3.722,38.957,35.793,69.755,75.292,71.475V386.55z M496.833,189.556
			c-31.13-1.68-56.4-25.717-60.03-56.298h51.435c4.738,0,8.595,3.856,8.595,8.595V189.556z"/>
	</g>
</g>
<g>
	<g>
		<path d="M256,180.737c-63.658,0-115.449,51.79-115.449,115.45c0,63.658,51.79,115.449,115.449,115.449
			s115.449-51.79,115.449-115.449C371.449,232.528,319.658,180.737,256,180.737z M256,396.469
			c-55.296,0-100.281-44.985-100.281-100.281S200.704,195.906,256,195.906s100.281,44.986,100.281,100.282
			C356.281,351.484,311.296,396.469,256,396.469z"/>
	</g>
</g>
<g>
	<g>
		<path d="M323.392,270.308h-41.514v-41.514c0-4.189-3.394-7.584-7.584-7.584h-36.59c-4.189,0-7.584,3.394-7.584,7.584v41.514
			h-41.514c-4.189,0-7.584,3.394-7.584,7.584v36.59c0,4.189,3.394,7.584,7.584,7.584h41.514v41.514c0,4.189,3.394,7.584,7.584,7.584
			h36.59c4.189,0,7.584-3.394,7.584-7.584v-41.514h41.514c4.189,0,7.584-3.394,7.584-7.584v-36.59
			C330.976,273.703,327.582,270.308,323.392,270.308z M315.809,306.899h-41.514c-4.189,0-7.584,3.394-7.584,7.584v41.514h-21.422
			v-41.514c0-4.189-3.394-7.584-7.584-7.584h-41.514v-21.422h41.514c4.189,0,7.584-3.394,7.584-7.584v-41.514h21.422v41.514
			c0,4.189,3.394,7.584,7.584,7.584h41.514V306.899z"/>
	</g>
</g>
<g>
</g>
<g>
</g>
<g>
</g>
<g>
</g>
<g>
</g>
<g>
</g>
<g>
</g>
<g>
</g>
<g>
</g>
<g>
</g>
<g>
</g>
<g>
</g>
<g>
</g>
<g>
</g>
<g>
</g>
</svg>
