<?xml version="1.0" encoding="iso-8859-1"?>
<!-- Generator: Adobe Illustrator 18.0.0, SVG Export Plug-In . SVG Version: 6.00 Build 0)  -->
<!DOCTYPE svg PUBLIC "-//W3C//DTD SVG 1.1//EN" "http://www.w3.org/Graphics/SVG/1.1/DTD/svg11.dtd">
<svg version="1.1" id="Capa_1" xmlns="http://www.w3.org/2000/svg" xmlns:xlink="http://www.w3.org/1999/xlink" x="0px" y="0px"
	 viewBox="0 0 458.326 458.326" style="enable-background:new 0 0 458.326 458.326;" xml:space="preserve">
<g>
	<path d="M370.263,14.919c-45.292,0-82.701,34.37-87.53,78.397C253.507,69.904,217.373,56.48,179.68,55.259
		c-41.732-1.353-82.504,12.287-114.833,38.393c-4.76,3.825-9.431,8.022-13.884,12.475C20.397,136.692,2.376,177.283,0.219,220.421
		c-2.141,42.827,11.454,84.706,38.279,117.92c3.894,4.821,8.088,9.485,12.464,13.861c4.686,4.685,9.66,9.127,14.781,13.198
		c30.57,24.352,69.016,37.763,108.257,37.763c39.241,0,77.687-13.411,108.253-37.76c5.126-4.075,10.1-8.517,14.784-13.202
		c0.88-0.88,1.752-1.773,2.616-2.675c9.723,27.762,23.416,54.184,40.894,78.605c6.946,9.707,17.777,15.273,29.714,15.273
		s22.768-5.567,29.714-15.273c38.173-53.336,58.35-116.198,58.35-181.789V102.983C458.326,54.425,418.821,14.919,370.263,14.919z
		 M174.005,317.593c-23.62,0-45.827-9.198-62.529-25.9s-25.9-38.909-25.9-62.529c0-23.621,9.198-45.827,25.9-62.529
		s38.909-25.9,62.529-25.9c23.621,0,45.827,9.198,62.53,25.9c16.702,16.702,25.9,38.909,25.9,62.529
		c0,23.62-9.198,45.827-25.9,62.529C219.833,308.394,197.626,317.593,174.005,317.593z M282.199,108.597v30.92l-28.51,28.501
		c-2.654-3.445-5.544-6.743-8.67-9.869c-2.855-2.855-5.854-5.513-8.976-7.975l43.72-43.72
		C280.582,107.16,281.394,107.873,282.199,108.597z M274.436,229.163c0-18.238-4.834-35.732-13.887-51.025l21.65-21.65v89.857
		c0,21.567,2.196,42.834,6.481,63.57l-28.727-28.733C269.39,265.654,274.436,247.797,274.436,229.163z M179.292,67.253
		c33.017,1.069,64.75,12.192,91.047,31.656l-44.31,44.31c-15.529-9.438-33.387-14.485-52.024-14.485
		c-18.636,0-36.494,5.046-52.023,14.484L77.671,98.906C106.87,77.272,142.691,66.062,179.292,67.253z M59.448,114.612
		c2.849-2.849,5.796-5.573,8.796-8.161l43.723,43.723c-3.122,2.462-6.121,5.12-8.976,7.975c-3.126,3.126-6.016,6.426-8.671,9.871
		l-43.759-43.76C53.385,120.941,56.342,117.717,59.448,114.612z M12.205,221.02c1.585-31.714,12.388-61.944,30.873-87.273
		l44.387,44.387c-9.054,15.295-13.888,32.789-13.888,51.029c0,18.636,5.046,36.494,14.484,52.023l-44.318,44.318
		C21.493,295.491,10.323,258.654,12.205,221.02z M51.292,334.925l43.724-43.724c2.462,3.122,5.12,6.121,7.975,8.976
		c3.126,3.126,6.426,6.016,9.871,8.671l-43.763,43.763c-3.319-2.825-6.554-5.798-9.65-8.894
		C56.634,340.903,53.909,337.955,51.292,334.925z M78.581,360.1l44.396-44.396c15.295,9.054,32.789,13.888,51.029,13.888
		c18.24,0,35.735-4.834,51.029-13.888l44.393,44.393c-27.524,20.078-61.147,31.067-95.426,31.067
		C139.726,391.164,106.106,380.178,78.581,360.1z M288.555,343.718c-3.094,3.094-6.327,6.065-9.646,8.89l-43.759-43.76
		c3.445-2.655,6.744-5.544,9.87-8.671c2.856-2.856,5.516-5.857,7.979-8.981l41.22,41.229c0.385,1.344,0.769,2.687,1.171,4.025
		C293.189,338.938,290.899,341.373,288.555,343.718z M446.326,246.345c0,63.071-19.401,123.517-56.107,174.804c0,0,0,0,0,0
		c-4.666,6.519-11.939,10.257-19.956,10.257s-15.29-3.739-19.956-10.257c-36.706-51.289-56.107-111.735-56.107-174.805V102.983
		c0-41.942,34.122-76.064,76.063-76.064s76.063,34.122,76.063,76.064V246.345z"/>
	<path d="M370.263,37.945c-19.936,0-38.47,7.847-52.188,22.096c-6.28,6.524-7.976,15.763-4.424,24.112
		c3.566,8.381,11.432,13.588,20.528,13.588h72.166c9.097,0,16.963-5.207,20.529-13.589c3.551-8.349,1.855-17.587-4.425-24.111
		C408.733,45.792,390.199,37.945,370.263,37.945z M415.832,79.455c-1.675,3.937-5.221,6.287-9.486,6.287H334.18
		c-4.266,0-7.812-2.35-9.485-6.286c-1.661-3.902-0.903-8.049,2.025-11.091c11.436-11.878,26.899-18.419,43.543-18.419
		c16.645,0,32.108,6.541,43.543,18.418C416.734,71.406,417.492,75.553,415.832,79.455z"/>
	<path d="M322.166,159.936h-2.732c-9.374,0-17,7.626-17,17v88.167c0,9.374,7.626,17,17,17h2.732c9.373,0,16.999-7.626,16.999-17
		v-88.167C339.165,167.562,331.539,159.936,322.166,159.936z M327.165,265.104c0,2.757-2.242,5-4.999,5h-2.732c-2.757,0-5-2.243-5-5
		v-88.167c0-2.757,2.243-5,5-5h2.732c2.757,0,4.999,2.243,4.999,5V265.104z"/>
	<path d="M418.36,159.936c-9.374,0-17,7.626-17,17v88.167c0,9.374,7.626,17,17,17h2.731c9.374,0,17-7.626,17-17v-88.167
		c0-9.374-7.626-17-17-17H418.36z M426.092,176.936v88.167c0,2.757-2.243,5-5,5h-2.731c-2.757,0-5-2.243-5-5v-88.167
		c0-2.757,2.243-5,5-5h2.731C423.849,171.936,426.092,174.179,426.092,176.936z"/>
	<path d="M370.263,388.871c-9.515,0-17.256,7.741-17.256,17.256s7.741,17.256,17.256,17.256c9.516,0,17.257-7.741,17.257-17.256
		S379.778,388.871,370.263,388.871z M370.263,411.384c-2.898,0-5.256-2.358-5.256-5.256s2.357-5.256,5.256-5.256
		s5.257,2.358,5.257,5.256S373.161,411.384,370.263,411.384z"/>
</g>
<g>
</g>
<g>
</g>
<g>
</g>
<g>
</g>
<g>
</g>
<g>
</g>
<g>
</g>
<g>
</g>
<g>
</g>
<g>
</g>
<g>
</g>
<g>
</g>
<g>
</g>
<g>
</g>
<g>
</g>
</svg>
